<?xml version="1.0" encoding="UTF-8" standalone="no"?>
<svg
   viewBox="0 0 128 140"
   version="1.1"
   id="svg8"
   sodipodi:docname="smokey.svg"
   inkscape:version="1.4 (e7c3feb100, 2024-10-09)"
   width="128"
   height="140"
   xmlns:inkscape="http://www.inkscape.org/namespaces/inkscape"
   xmlns:sodipodi="http://sodipodi.sourceforge.net/DTD/sodipodi-0.dtd"
   xmlns="http://www.w3.org/2000/svg"
   xmlns:svg="http://www.w3.org/2000/svg">
  <sodipodi:namedview
     id="namedview8"
     pagecolor="#ffffff"
     bordercolor="#000000"
     borderopacity="0.25"
     inkscape:showpageshadow="2"
     inkscape:pageopacity="0.0"
     inkscape:pagecheckerboard="0"
     inkscape:deskcolor="#d1d1d1"
     inkscape:zoom="5.2591067"
     inkscape:cx="71.495032"
     inkscape:cy="88.418058"
     inkscape:window-width="2236"
     inkscape:window-height="1432"
     inkscape:window-x="0"
     inkscape:window-y="0"
     inkscape:window-maximized="1"
     inkscape:current-layer="svg8" />
  <defs
     id="defs1" />
  <path
     d="m 62.479735,30.472496 c 14.866175,0.219973 16.340837,3.609559 20.695072,3.729544 6.2972,0.179978 15.922354,-11.968538 28.965133,-0.989879 12.85346,10.818679 2.38137,27.796605 2.38137,27.796605 0,0 7.1541,12.718446 7.99107,32.096079 0.60781,14.028285 -4.77272,31.486155 -28.895381,41.384945 -22.209587,9.11889 -55.349601,7.29911 -75.60626,-8.30898 C 2.3075944,114.09228 3.41359,96.45444 3.8420388,90.44517 4.9679622,74.677096 11.833106,62.008644 11.833106,62.008644 c 0,0 -10.1532389,-20.147539 2.241883,-29.696373 13.610722,-10.488719 23.295656,1.859773 28.895381,1.409828 4.075246,-0.339959 5.410412,-3.459578 19.509365,-3.249603 z"
     fill="#855b52"
     id="path1"
     style="stroke-width:0.998134" />
  <path
     d="m 63.695334,80.916334 c 14.587186,0 23.335511,16.517986 22.817388,26.836726 -0.468305,9.38885 -5.799004,17.1779 -23.753996,17.07791 -17.954994,-0.09 -22.508507,-8.35898 -22.817388,-17.1779 -0.27899,-7.879039 5.330699,-26.736736 23.753996,-26.736736 z"
     fill="#f2a258"
     id="path4"
     style="stroke-width:0.998134" />
  <path
     d="m 92.002844,80.236417 c 0.328809,4.159492 -1.893145,7.949029 -6.147742,7.629068 -4.105136,-0.319961 -7.104278,-3.659553 -7.104278,-7.839042 0,-4.17949 2.211991,-7.139128 5.539942,-7.599072 4.065282,-0.56993 7.243774,1.899768 7.712078,7.809046 z"
     fill="#171716"
     id="path5"
     style="stroke-width:0.998134" />
  <path
     d="m 73.699114,97.524309 c -0.338773,4.159491 -3.088816,8.608951 -11.079884,8.328981 -6.705721,-0.23997 -9.864285,-4.71942 -9.963925,-8.888912 -0.139494,-5.889285 2.989178,-8.05902 10.571724,-8.169006 8.648688,-0.109987 10.94039,3.009632 10.472085,8.728937 z"
     fill="#2f3030"
     id="path6"
     style="stroke-width:0.998134" />
  <path
     d="m 47.613559,81.786228 c -0.428448,4.149493 -4.314378,7.059138 -7.951211,6.169246 -3.995534,-0.97988 -5.789041,-5.199365 -4.952071,-9.288865 0.747294,-3.659553 3.945715,-6.509205 7.572583,-6.099255 3.786291,0.419949 5.868752,3.989513 5.330699,9.218874 z"
     fill="#171716"
     id="path7"
     style="stroke-width:0.998134" />
  <path
     d="m 63.17721,115.5721 c 5.470195,0 8.459372,-3.02963 9.306306,-3.86952 0.846934,-0.8399 1.982821,-2.27973 3.736472,-0.8399 1.494588,1.21985 0.01993,3.11962 -0.65762,3.84953 -1.215598,1.30984 -4.882323,5.30935 -12.883355,4.94939 -7.851572,-0.34995 -10.870642,-3.91952 -11.717574,-4.75942 -0.836971,-0.83989 -2.241884,-2.99963 -0.65762,-4.21948 1.90311,-1.45982 2.520873,0.18998 4.483766,1.77978 1.962893,1.58981 3.19842,3.10962 8.389625,3.10962 z"
     fill="#2f3030"
     id="path8"
     style="stroke-width:0.998134" />
  <path
     d="m 127.86896,19.429803 c 0.72085,17.361088 -1.34265,33.102907 -10.96032,47.994138 -4.5194,-9.83204 -3.64386,-11.491066 -12.95311,-22.997191 v -2.999633 c 1.89938,-1.656048 1.89938,-1.656048 4.48377,-3.499573 14.00416,-10.790098 10.74335,-6.190792 19.42966,-18.497741 z"
     fill="#4b251a"
     id="path5-5"
     sodipodi:nodetypes="cccccc"
     style="stroke-width:0.998134" />
  <path
     d="m 4.3162866,20.429681 c 4.9855581,8.29909 11.0638904,15.317261 18.9314554,20.997436 -0.620888,3.074221 -1.659408,5.280103 -3.30055,7.93653 C 16.689122,55.047197 9.7838845,66.550098 9.7838845,66.550098 1.330473,51.299793 -0.94752327,37.94605 0.33071684,20.429681 c 1.32794796,-1.392007 0.54984912,-1.265959 3.98556976,0 z"
     fill="#4b251a"
     id="path6-3"
     sodipodi:nodetypes="cccccc"
     style="stroke-width:0.998134" />
  <path
     d="m 88.981444,50.653828 c 0.375813,0.494551 4.78836,-0.351906 9.594095,-0.235578 4.862021,0.119348 10.110571,1.194044 10.486431,0.761076 0.74431,-0.85925 -1.98722,-11.166098 -10.241558,-10.915257 -8.254344,0.250841 -10.953837,8.935099 -9.838968,10.389759 z"
     fill="#b99277"
     id="path3"
     style="stroke-width:0.998134" />
  <path
     d="m 38.571267,49.893436 c 0.575349,-0.96672 -0.253228,-11.12808 -10.652706,-10.452581 -8.015473,0.525216 -9.990687,11.713453 -8.735911,11.764612 0.964047,0.03836 5.422524,-0.883422 9.912829,-1.1198 4.602696,-0.245138 9.250179,0.179924 9.475789,-0.192226 z"
     fill="#b99277"
     id="path2"
     style="stroke-width:0.998134" />
  <path
     d="m 59.117872,0.4321245 c 0.986428,0.6599194 1.972856,1.3198388 2.989177,1.9997557 3.813681,-0.1823037 3.813681,-0.1823037 6.974746,-1.9997557 5.235481,-0.80906418 9.704396,-0.72104793 14.136319,2.3747099 7.238957,6.2496319 11.029312,13.6182236 13.762669,22.6222356 -22.056049,4.479974 -43.663479,3.954906 -65.7619,0 2.900374,-9.763804 7.568163,-19.1804638 16.853044,-24.2626602 3.646111,-1.28813965 7.254756,-1.44715123 11.045945,-0.7342853 z"
     fill="#826056"
     id="path3-7"
     style="stroke-width:0.998134" />
  <path
     d="m 59.117872,0.4321245 2.989177,1.9997557 c 3.813681,-0.1823037 3.813681,-0.1823037 6.974746,-1.9997557 5.235481,-0.80906418 9.704396,-0.72104793 14.136319,2.3747099 6.40554,5.5040919 10.860277,12.7414706 13.762669,20.6224796 7.418677,-0.4406 14.431257,-1.649801 21.659867,-3.378493 3.16436,-0.604665 6.01667,-0.733161 9.22831,-0.621018 C 128.5898,36.790891 97.047531,46.750968 93.74251,48.301277 76.744004,55.877061 57.112034,56.761444 39.501395,50.613495 34.246335,48.558403 29.226022,46.07293 24.244135,43.426872 15.257521,36.513489 11.746323,39.562097 0.33071684,20.429681 L 1.3271092,19.429803 c 6.5185099,0.459039 12.8618648,1.68224 19.2566948,2.983033 3.599383,0.713673 6.964424,1.180665 10.635079,1.016478 L 32.3515,21.015546 C 37.75449,9.7893676 44.76716,-2.2662709 59.117872,0.4321245 Z"
     fill="#7a5548"
     id="path2-6"
     sodipodi:nodetypes="cccccccccccccccc"
     inkscape:label="path2-6"
     style="stroke-width:0.998134" />
  <path
     d="m 93.991607,18.429925 c 1.739979,2.619092 2.378617,4.037756 2.989176,6.999145 -22.056049,4.479974 -43.663479,3.954906 -65.7619,0 0.657618,-1.979758 1.315237,-3.959516 1.992784,-5.999267 0.891783,0.141457 1.783567,0.282914 2.702374,0.428658 8.826147,1.303328 17.409666,1.887643 26.336775,1.831808 2.045705,-0.01079 4.090548,1.8e-5 6.13623,0.0127 13.145587,0.257416 13.145587,0.257416 25.604561,-3.273037 z"
     fill="#9f857b"
     id="path8-5"
     style="stroke-width:0.998134" />
</svg>
